HIERARCHY
ROOT hips
{
  OFFSET 0 11.86390953 0.3628582958
  CHANNELS 6 Xposition Yposition Zposition Yrotation Xrotation Zrotation
  JOINT spine
  {
    OFFSET 0 0.05383551117999996 0
    CHANNELS 3 Yrotation Xrotation Zrotation
    JOINT chest
    {
      OFFSET 0 0.6394558760401424 0
      CHANNELS 3 Yrotation Xrotation Zrotation
      JOINT neck
      {
        OFFSET 0 2.720089088562982 0
        CHANNELS 3 Yrotation Xrotation Zrotation
        JOINT head
        {
          OFFSET 0 0.37880844870545777 0
          CHANNELS 3 Yrotation Xrotation Zrotation
          JOINT rightEye
          {
            OFFSET -0.42867780714 0.7547055649100001 0.7381831347
            CHANNELS 3 Yrotation Xrotation Zrotation
            End Site
            {
              OFFSET -0.42867780714 0.7547055649100001 0.7381831347
            }
          }
          JOINT leftEye
          {
            OFFSET 0.428676479 0.7547055559999993 0.7381844503
            CHANNELS 3 Yrotation Xrotation Zrotation
            End Site
            {
              OFFSET 0.428676479 0.7547055559999993 0.7381844503
            }
          }
          JOINT jaw
          {
            OFFSET -0.18933892286100001 1.5626303011000007 1.137441874206
            CHANNELS 3 Yrotation Xrotation Zrotation
            End Site
            {
              OFFSET -0.18933892286100001 1.5626303011000007 1.137441874206
            }
          }
        }
      }
      JOINT rightShoulder
      {
        OFFSET -0.6795351508 2.0665205 0
        CHANNELS 3 Yrotation Xrotation Zrotation
        JOINT rightUpperArm
        {
          OFFSET -0.7287400483531672 0 0
          CHANNELS 3 Yrotation Xrotation Zrotation
          JOINT rightLowerArm
          {
            OFFSET -1.9872982039174532 0 0
            CHANNELS 3 Yrotation Xrotation Zrotation
            JOINT rightHand
            {
              OFFSET -2.6451847532219275 0 0
              CHANNELS 3 Yrotation Xrotation Zrotation
              JOINT rightLittleProximal
              {
                OFFSET -0.8008804099999995 -0.09592044000000044 -0.26183688629999996
                CHANNELS 3 Yrotation Xrotation Zrotation
                JOINT rightLittleIntermediate
                {
                  OFFSET -0.2473955153999997 -0.02541697026000067 0.002370178700999967
                  CHANNELS 3 Yrotation Xrotation Zrotation
                  JOINT rightLittleDistal
                  {
                    OFFSET -0.163687229200001 -0.015790700860001117 -0.0004274845300000635
                    CHANNELS 3 Yrotation Xrotation Zrotation
                    End Site
                    {
                      OFFSET -0.163687229200001 -0.015790700860001117 -0.0004274845300000635
                    }
                  }
                }
              }
              JOINT rightRingProximal
              {
                OFFSET -0.8393382799999985 -0.06223833561000025 -0.09213143500000005
                CHANNELS 3 Yrotation Xrotation Zrotation
                JOINT rightRingIntermediate
                {
                  OFFSET -0.3284497260000011 -0.03264224524000103 0.009408593183000052
                  CHANNELS 3 Yrotation Xrotation Zrotation
                  JOINT rightRingDistal
                  {
                    OFFSET -0.19447660429999902 -0.021730899850000318 0.003074347969000052
                    CHANNELS 3 Yrotation Xrotation Zrotation
                    End Site
                    {
                      OFFSET -0.19447660429999902 -0.021730899850000318 0.003074347969000052
                    }
                  }
                }
              }
              JOINT rightMiddleProximal
              {
                OFFSET -0.8473005199999989 -0.06735503500000095 0.10541820299999995
                CHANNELS 3 Yrotation Xrotation Zrotation
                JOINT rightMiddleIntermediate
                {
                  OFFSET -0.3450455799999995 -0.02481901642000084 0.019012570390000032
                  CHANNELS 3 Yrotation Xrotation Zrotation
                  JOINT rightMiddleDistal
                  {
                    OFFSET -0.23542332000000088 -0.025003910029999243 0.0075583457949999905
                    CHANNELS 3 Yrotation Xrotation Zrotation
                    End Site
                    {
                      OFFSET -0.23542332000000088 -0.025003910029999243 0.0075583457949999905
                    }
                  }
                }
              }
              JOINT rightIndexProximal
              {
                OFFSET -0.8008568281999987 -0.09897839600000169 0.29462796
                CHANNELS 3 Yrotation Xrotation Zrotation
                JOINT rightIndexIntermediate
                {
                  OFFSET -0.30524754480000016 -0.024634122809999992 0.02743375304999998
                  CHANNELS 3 Yrotation Xrotation Zrotation
                  JOINT rightIndexDistal
                  {
                    OFFSET -0.23067378950000017 -0.016876459159999913 0.008484125099999983
                    CHANNELS 3 Yrotation Xrotation Zrotation
                    End Site
                    {
                      OFFSET -0.23067378950000017 -0.016876459159999913 0.008484125099999983
                    }
                  }
                }
              }
              JOINT rightThumbProximal
              {
                OFFSET -0.25574064999999935 -0.12833189930000155 0.22385698609999993
                CHANNELS 3 Yrotation Xrotation Zrotation
                JOINT rightThumbIntermediate
                {
                  OFFSET -0.22791743260000086 -0.07103586192999978 0.27385039
                  CHANNELS 3 Yrotation Xrotation Zrotation
                  JOINT rightThumbDistal
                  {
                    OFFSET -0.13610267659999975 -0.03369390969999997 0.14246511509999996
                    CHANNELS 3 Yrotation Xrotation Zrotation
                    End Site
                    {
                      OFFSET -0.13610267659999975 -0.03369390969999997 0.14246511509999996
                    }
                  }
                }
              }
            }
          }
        }
      }
      JOINT leftShoulder
      {
        OFFSET 0.6795338396 2.0665205 0
        CHANNELS 3 Yrotation Xrotation Zrotation
        JOINT leftUpperArm
        {
          OFFSET 0.7287383950230443 0 0
          CHANNELS 3 Yrotation Xrotation Zrotation
          JOINT leftLowerArm
          {
            OFFSET 1.9872997282019604 0 0
            CHANNELS 3 Yrotation Xrotation Zrotation
            JOINT leftHand
            {
              OFFSET 2.6451820781302327 0 0
              CHANNELS 3 Yrotation Xrotation Zrotation
              JOINT leftLittleProximal
              {
                OFFSET 0.8008804099999995 -0.09592306899999814 -0.2618342639000001
                CHANNELS 3 Yrotation Xrotation Zrotation
                JOINT leftLittleIntermediate
                {
                  OFFSET 0.2473981400000007 -0.02542352681000093 0.0023609995859999455
                  CHANNELS 3 Yrotation Xrotation Zrotation
                  JOINT leftLittleDistal
                  {
                    OFFSET 0.1636846068000002 -0.015794634789999318 -0.00043272972159996703
                    CHANNELS 3 Yrotation Xrotation Zrotation
                    End Site
                    {
                      OFFSET 0.1636846068000002 -0.015794634789999318 -0.00043272972159996703
                    }
                  }
                }
              }
              JOINT leftRingProximal
              {
                OFFSET 0.8393409199999996 -0.062242267999998324 -0.0921281570000001
                CHANNELS 3 Yrotation Xrotation Zrotation
                JOINT leftRingIntermediate
                {
                  OFFSET 0.3284471036000003 -0.03264224524000103 0.009405970574000042
                  CHANNELS 3 Yrotation Xrotation Zrotation
                  JOINT leftRingDistal
                  {
                    OFFSET 0.1944779099999996 -0.021732211159998904 0.003073036670000001
                    CHANNELS 3 Yrotation Xrotation Zrotation
                    End Site
                    {
                      OFFSET 0.1944779099999996 -0.021732211159998904 0.003073036670000001
                    }
                  }
                }
              }
              JOINT leftMiddleProximal
              {
                OFFSET 0.8473005200000001 -0.06736028199999788 0.1054214809999999
                CHANNELS 3 Yrotation Xrotation Zrotation
                JOINT leftMiddleIntermediate
                {
                  OFFSET 0.3450455799999995 -0.024824261000000014 0.019013225990000007
                  CHANNELS 3 Yrotation Xrotation Zrotation
                  JOINT leftMiddleDistal
                  {
                    OFFSET 0.2354259489999998 -0.025005222000000327 0.0075590014499999705
                    CHANNELS 3 Yrotation Xrotation Zrotation
                    End Site
                    {
                      OFFSET 0.2354259489999998 -0.025005222000000327 0.0075590014499999705
                    }
                  }
                }
              }
              JOINT leftIndexProximal
              {
                OFFSET 0.8008594516999996 -0.09898495199999946 0.29463124239999994
                CHANNELS 3 Yrotation Xrotation Zrotation
                JOINT leftIndexIntermediate
                {
                  OFFSET 0.30524754480000016 -0.024632811499998963 0.02743047472
                  CHANNELS 3 Yrotation Xrotation Zrotation
                  JOINT leftIndexDistal
                  {
                    OFFSET 0.23067378950000017 -0.016876459159999913 0.008481502700000004
                    CHANNELS 3 Yrotation Xrotation Zrotation
                    End Site
                    {
                      OFFSET 0.23067378950000017 -0.016876459159999913 0.008481502700000004
                    }
                  }
                }
              }
              JOINT leftThumbProximal
              {
                OFFSET 0.25574326469999953 -0.12833321050000013 0.22385764169999997
                CHANNELS 3 Yrotation Xrotation Zrotation
                JOINT leftThumbIntermediate
                {
                  OFFSET 0.22804987480000094 -0.07138466829999968 0.273648441
                  CHANNELS 3 Yrotation Xrotation Zrotation
                  JOINT leftThumbDistal
                  {
                    OFFSET 0.13614857189999907 -0.033867001519998885 0.14238119169999996
                    CHANNELS 3 Yrotation Xrotation Zrotation
                    End Site
                    {
                      OFFSET 0.13614857189999907 -0.033867001519998885 0.14238119169999996
                    }
                  }
                }
              }
            }
          }
        }
      }
    }
  }
  JOINT rightUpperLeg
  {
    OFFSET -0.9749898906000001 -1.8495733739999998 0
    CHANNELS 3 Yrotation Xrotation Zrotation
    JOINT rightLowerLeg
    {
      OFFSET 0 -4.1566544686813165 0
      CHANNELS 3 Yrotation Xrotation Zrotation
      JOINT rightFoot
      {
        OFFSET 0.14539718599999998 -4.225553926 -0.3666210900000001
        CHANNELS 3 Yrotation Xrotation Zrotation
        JOINT rightToes
        {
          OFFSET 0.1706738473 -0.9584117400000015 1.0093348617
          CHANNELS 3 Yrotation Xrotation Zrotation
          End Site
          {
            OFFSET 0.1706738473 -0.9584117400000015 1.0093348617
          }
        }
      }
    }
  }
  JOINT leftUpperLeg
  {
    OFFSET 0.9749898906000001 -1.8495733739999998 0
    CHANNELS 3 Yrotation Xrotation Zrotation
    JOINT leftLowerLeg
    {
      OFFSET 0 -4.156653488267941 0
      CHANNELS 3 Yrotation Xrotation Zrotation
      JOINT leftFoot
      {
        OFFSET -0.14537357999999995 -4.225555399999999 -0.36661124279999996
        CHANNELS 3 Yrotation Xrotation Zrotation
        JOINT leftToes
        {
          OFFSET -0.17066467000000002 -0.9584157000000019 1.0093348617
          CHANNELS 3 Yrotation Xrotation Zrotation
          End Site
          {
            OFFSET -0.17066467000000002 -0.9584157000000019 1.0093348617
          }
        }
      }
    }
  }
}
MOTION
Frames: 4
Frame Time: 0.03333333333333333
-0.3046652376651764 -0.9337966912548836 0.44571882486343384 0.7942745309910525 4.480280669523227 0.00004438298714035647 -1.8114144697887018 4.436677984686286 -1.8313693288671238 -0.49929771666475126 4.973010908294795 -0.2633267260692598 -0.5812361697293257 5.9454191371503 2.611250623662771 -0.565583808640498 -7.313169213832216 0.5065735407187898 0 0 0 0 0 0 0 0 0 4.836711789625931 0.6178360945341989 6.591762128526251 11.318597582872574 2.957003871763201 64.77934591752695 31.616057931908724 0.10986088535353482 -0.38798879711273077 -2.122306522483223 0.14849003958562865 14.4169417361124 -3.3447814412745283 0.9500999100783756 28.171105274256337 -2.6133924181605566 0.5449938145432536 25.608967752635774 -1.1834865660681886 0.08442306299991452 10.398254094777272 -5.1286277444974795 1.46566337340378 19.803048542749902 -3.706746262716642 1.2081669677110394 36.18951117902344 -1.018429340645274 -0.03448000430068073 9.112323680900145 1.1290676342493227 -0.7149635366980507 18.74974620706985 -3.045928746810649 0.8270667137143269 30.210369633563946 -1.5186347611877316 0.22001016526258232 13.84318982680637 7.357155229262631 -2.2308459845253052 15.750541602248981 -1.916098549524727 0.30787319221065035 18.177780070807554 -2.1874044632307665 0.39245501300239716 20.44064274329278 -19.52275344740266 -5.740310087547996 14.02316973823978 -5.108528228836835 -1.8365643124486506 -8.714000151167117 5.347919310049826 -5.699756685525713 -11.042497327797385 -1.1262473035342218 0.5803452705256525 -9.777669149392276 -12.282397679746161 0.6451084553399298 -62.212094218048556 -38.637283270962946 0.16192640503388436 0.46213788980923687 13.108686513166766 2.2734860697147234 -10.384441701223869 8.587944599467187 4.429837574645558 -32.866584352255614 -1.818009192111694 0.5209192908800246 -22.213064130896907 0.8237184937113439 0.08388799981060559 -7.767781451553515 5.893876171755485 2.3228290521711883 -27.69310476656697 2.8074365265901275 0.6765297892658463 -27.080026036428535 0.8085984861602137 0.053355801326529374 -7.536632974094878 1.6259664656890893 0.16602490884724136 -24.19882021733377 4.062631039131496 1.523729282391175 -41.14921792919613 1.1410617825467562 0.10628371415404798 -10.643568375966359 -0.7993483619458543 -1.1067410021291288 -26.619386554945063 3.327984844220271 0.9718509321334221 -32.53221774180575 1.2033295775622055 0.1199741080122286 -11.327059491028407 27.472890669677103 -18.927307918332037 -22.92001225882956 4.272319088595648 -8.891771148702096 17.755906202256448 -1.9372849036403914 -0.9847150139522937 1.9488050433486226 -6.884706392141588 -29.77530779482242 -4.9214604919296265 -4.203899170923107 47.09163028421859 -1.575869829970479 -0.6072990874416176 -17.544654272373766 3.6923494845380582 -0.05338461891066469 -3.2583579870803225 1.3350357181695252 11.28910983350341 -28.808843196204055 7.543132607743729 -7.74486472117271 44.57561860955641 -6.02056152757389 0.3213181760125513 -19.265950842718198 -1.5990603090794309 -0.000004247789734716726 -1.5744469265989902 -0.000672093244902942
-0.30685073137283325 -0.9335697167675789 0.4464151859283447 0.7923916843796163 4.518824400814926 0.025880685653319194 -1.8073084148660752 4.441936785657315 -1.789019266257596 -0.4966120453957925 4.973795063487053 -0.2588664121002458 -0.5888865422071726 5.9302962136944455 2.6118753727637545 -0.5662111203408943 -7.347877909257871 0.4366125030864815 0 0 0 0 0 0 0 0 0 4.8540442646723125 0.6184938053254037 6.630790005069389 11.282072169201658 2.8924607395779756 64.6245465129485 31.667752933956287 0.11021605584539004 -0.38857545709467045 -2.1401306782486937 0.11285275398485896 14.416326593569801 -3.3432873363166657 0.948933922055931 28.16403883065509 -2.611794139112946 0.5442775194536235 25.59293763542221 -1.1834710947052023 0.08441878745693561 10.398165358028654 -5.135379782900552 1.467960457055506 19.79761552327221 -3.7063919000554626 1.2079066156037577 36.18549117474951 -1.0178786681559457 -0.0345478392972255 9.107234148422904 1.1242677378939046 -0.7129116526128496 18.74143995681748 -3.046676935644285 0.8275152584391096 30.218175844159784 -1.5181641316407624 0.22038268012759882 13.839911435173217 7.356959557917396 -2.2292710734769754 15.741106661826567 -1.9156899979349842 0.30775086069003854 18.173883524814542 -2.1871048222592004 0.3923442065927359 20.43776118749345 -19.54734852350181 -5.7112962545063475 14.002339233713696 -5.109269002237286 -1.8380839570353087 -8.715102558956865 5.348174011283147 -5.698107152745086 -11.03859755422598 -1.1309716002693444 0.5797756675915121 -9.772248077619382 -12.305452848864368 0.6611666865047275 -62.22111905076349 -38.63441597917072 0.1619076752997301 0.46212551044440875 13.11469842026632 2.28431386645365 -10.385474183084296 8.589646170094543 4.430609558163116 -32.86364388701278 -1.8179703633592708 0.5209347661669714 -22.213597183994327 0.8237276174841139 0.08388536511567027 -7.767733155735613 5.894498838444725 2.323123846334699 -27.691172533655894 2.8075061518362205 0.6765810726206952 -27.08065230689333 0.8086900976585097 0.05335327669008236 -7.5376407293199605 1.6263472810476864 0.16622126427099548 -24.200169802429233 4.062411067023571 1.523524731282916 -41.146458254149756 1.1410219831749402 0.10627164124031221 -10.643226422283222 -0.7983071322365608 -1.1061941648664393 -26.61749694932727 3.327402794532364 0.9714783130773708 -32.525765311630366 1.203279357594792 0.11996675753862944 -11.326599367652914 27.461471909841645 -18.883804042429052 -22.917572824866372 4.270992631545095 -8.889679889784311 17.752901708406213 -1.9377952789671258 -0.9844762422421091 1.9473821670130782 -6.877527230953917 -29.816888711524793 -4.9346066047377075 -4.199305019722216 47.09594429724137 -1.5705994534211432 -0.6055860851075835 -17.54900251728648 3.681552051453685 -0.053378232345283286 -3.2607669646984743 1.3325975650987787 11.290863382777564 -28.820760411343247 7.51655950083927 -7.732818951377814 44.539907285966244 -6.003045535908041 0.3247860628683096 -19.261767031059815 -1.623758423927224 4.5007348405076167e-7 -1.5935265601652293 0.000002083334544699664
-0.30992352962493896 -0.9319675439160164 0.44793999195098877 0.7889413683679886 4.560929299572822 0.05007365804953103 -1.8054446229480965 4.45675214556368 -1.7491671838688367 -0.4947146897182024 4.976207524935911 -0.2503297476428522 -0.5965091914835895 5.912878498169754 2.6079966739964666 -0.5834038372120541 -7.376476033908054 0.3905649690911735 0 0 0 0 0 0 0 0 0 4.882385097374703 0.6190752590874736 6.674308984697024 11.245494754353832 2.8689783301171805 64.51130890553496 31.716739498022395 0.11053694859979513 -0.38908482550899604 -2.1402072577317175 0.08163427515705447 14.416655906382609 -3.3459415437838143 0.9500798436389251 28.161612804905655 -2.6104674423242846 0.5436925514192484 25.57970896964709 -1.1835785044928882 0.08443799071471823 10.399185352789987 -5.1404198503862855 1.4696392074638116 19.792396179491902 -3.7070982741776297 1.2084183532257557 36.19359949628211 -1.0176266772589915 -0.0345349192983715 9.105020061109618 1.1266738273080794 -0.7134683561576414 18.739508865108107 -3.0475659628055944 0.8280124200279485 30.227827895432625 -1.5177572835432396 0.22068595878156563 13.836812790123135 7.3511878681568374 -2.22863324886625 15.744487774946116 -1.915431742865189 0.30766761655903946 18.171367187207508 -2.1862374193738563 0.39202240643083336 20.42933276057175 -19.581491780712476 -5.675991000390237 13.973347601458373 -5.1107125812286895 -1.8437531653155175 -8.718230983818753 5.348541162446772 -5.695741186170691 -11.033028547922198 -1.1409589200769366 0.5799777554912265 -9.777113562387898 -12.29989992074134 0.6697891546328337 -62.21256785546711 -38.61067121938188 0.16173377158657115 0.4618848323220319 13.106496302887454 2.2950323740573846 -10.403490356731039 8.595594311631865 4.434182614949094 -32.86023465447211 -1.8171804425147255 0.5212949134591012 -22.221431913503697 0.82384814732047 0.08391527390578196 -7.768904867226744 5.898958400887572 2.326071791355382 -27.7002332192352 2.8069901896705782 0.6763113680737924 -27.075220678274086 0.80906373634324 0.053414494955133354 -7.541083756228831 1.626997325374674 0.16647099411501987 -24.2054617969629 4.0619960708867735 1.523163137069639 -41.14146403574365 1.1409989745133007 0.10626729232332126 -10.642852999963052 -0.802574695403539 -1.109065088306424 -26.627710293013052 3.326759169857279 0.9710679091517022 -32.51847721739367 1.2033512373383415 0.11997644255466068 -11.327372099975792 27.429987427394494 -18.75805766819619 -22.913682191245645 4.277539255743 -8.904974872882098 17.77079400633483 -1.9383001247583405 -0.9848654070498745 1.9468101336514447 -6.864319006601718 -29.829896627819043 -4.938751382958242 -4.2037684123438686 47.05313566221555 -1.5708557228289801 -0.6044275004623983 -17.55803423428775 3.674188331084696 -0.05279887994254482 -3.245727838207423 1.32475858467547 11.287852044455171 -28.803612914433405 7.48470900238233 -7.703718687872559 44.455386852117016 -5.948218777766056 0.3315562459658041 -19.26076134041247 -1.665807117861767 0.000001325724736568008 -1.6158047018470072 0.0000041618598625994065
-0.31141364574432373 -0.9303052895825203 0.44970932602882385 0.7842548737787903 4.565049864819215 0.056647431969709644 -1.8107373162635034 4.466486060723106 -1.755232168955177 -0.49557316987222144 4.981775931095478 -0.23637188413486046 -0.5994645674161913 5.905916543905527 2.6026942488994975 -0.6081746449952434 -7.3693039467839165 0.4048578114789532 0 0 0 0 0 0 0 0 0 4.895712083608718 0.6190262176012256 6.700618368487578 11.255759404800944 2.8759355081995444 64.49249692875628 31.702079746067998 0.11045696720268318 -0.38893950030463337 -2.1276664504558984 0.057757436765152916 14.396663036024979 -3.3411161661899675 0.9473546514650011 28.16033712092625 -2.610105663625676 0.543523016359126 25.575980206994533 -1.1831745436613248 0.08436035725964211 10.39543809413167 -5.133756027604822 1.4673066788592242 19.79528208973284 -3.707164538730531 1.2084679898588002 36.19433257626193 -1.017826596172943 -0.0342427018750945 9.107206631521102 1.1203631393065476 -0.7115675489616243 18.741055367287448 -3.0477138353241626 0.8281014885931174 30.22926070531413 -1.517584896724599 0.22054461817470997 13.834896945761217 7.346302094955579 -2.2276109357832117 15.746431232829497 -1.9156895712805857 0.30775112749815176 18.173811172945335 -2.186003602929114 0.39193889474172183 20.42700721004619 -19.5674188492875 -5.68939495258997 13.98413049055695 -5.109153674699782 -1.8433089731087948 -8.716316352380158 5.34858195838454 -5.6953748161527775 -11.03217609359376 -1.1556364188184143 0.5798777521303923 -9.773080195770827 -12.313903810079792 0.6619866840331752 -62.205702546843824 -38.60526677675378 0.16169078924836897 0.4618375025945141 13.100674427403991 2.3331122780364404 -10.39859493185451 8.604388500153089 4.439484643463032 -32.854246659207966 -1.8158249377027564 0.5219004775107409 -22.235416004875535 0.824282985273807 0.08397573181699639 -7.772949563764225 5.905347119363722 2.3297347284377694 -27.704451241032043 2.806677438639231 0.6761673904646646 -27.07186029668156 0.8096547455590992 0.05349128792596835 -7.546606669154296 1.6297946459360493 0.1676172034467097 -24.21083149148184 4.061257903453776 1.522525996896994 -41.13221380731761 1.140659957000508 0.10620783489077927 -10.639737438103317 -0.808879532924962 -1.1130264890249988 -26.63901589417483 3.3239763067400605 0.9693045070510926 -32.487986757407505 1.202442163432929 0.11979513531985658 -11.318671290829977 27.36924536865608 -18.57343771926753 -22.91269878802281 4.274919930594123 -8.904339693618658 17.769282730433197 -1.937925316777522 -0.9867708849821303 1.950137224850861 -6.8557710620322 -29.79378606908813 -4.926997294601956 -4.213333706280351 46.99951415393968 -1.5918576227466668 -0.6056592572925997 -17.572504188165055 3.6809203728044113 -0.05211402897924671 -3.221076648254846 1.3206014767672543 11.300081682495108 -28.757611768830674 7.485324004396884 -7.683553711289554 44.3841473238756 -5.9332191481064 0.3338544526468015 -19.271259897099906 -1.6742284188426926 0.000005285668967794824 -1.610839427219212 0.0000024995641556380677
